<svg width="722" height="244" viewBox="0 0 722 244" fill="none" xmlns="http://www.w3.org/2000/svg"><path opacity="0.7" fill-rule="evenodd" clip-rule="evenodd" d="M218.69 222.15c-6.628 4.313-13.308 7.968-19.935 10.92-26.18 11.66-51.19 12.24-69.227-.238-4.12-2.85-7.728-6.278-10.82-10.21 19.118-12.804 37.69-30.97 53.342-53.44 37.638-54.038 45.974-115.16 22.714-147.3 6.645-4.328 13.34-7.993 19.984-10.952 26.18-11.66 51.19-12.24 69.227.238 4.11 2.842 7.71 6.26 10.795 10.18-19.133 12.805-37.724 30.983-53.388 53.47-37.65 54.055-45.98 115.2-22.69 147.332zM193.56 20.28C226.8-1.4 261.47-6.831 285.12 9.528c4.334 2.997 8.11 6.596 11.33 10.712 33.21-21.646 67.836-27.061 91.464-10.713 4.346 3.007 8.13 6.62 11.358 10.754C432.51-1.4 467.177-6.831 490.828 9.528c4.333 2.997 8.108 6.596 11.33 10.712 33.21-21.646 67.836-27.061 91.463-10.713 4.348 3.007 8.132 6.62 11.36 10.753C638.22-1.4 672.887-6.831 696.537 9.528 712.784 20.764 721.177 40.45 722 64.19h-2.003c-.82-23.292-9.057-42.27-24.603-53.022-18.038-12.477-43.048-11.899-69.227-.238-6.643 2.96-13.34 6.624-19.984 10.95 23.26 32.142 14.924 93.264-22.714 147.3-15.652 22.47-34.226 40.638-53.342 53.44 3.09 3.934 6.698 7.362 10.82 10.212 18.037 12.477 43.047 11.9 69.226.238 11.435-5.094 23.026-12.28 34.245-21.33v2.56c-36.955 29.286-77.845 38.69-104.617 20.173-4.344-3.005-8.127-6.614-11.353-10.742-33.223 21.67-67.87 27.1-91.51 10.743-4.336-3-8.112-6.602-11.335-10.723-33.225 21.654-67.87 27.074-91.51 10.723-4.345-3.005-8.128-6.614-11.355-10.743-33.223 21.67-67.87 27.1-91.51 10.743-4.335-3-8.112-6.602-11.334-10.723-33.226 21.654-67.872 27.074-91.51 10.723-4.346-3.005-8.128-6.614-11.355-10.743-33.222 21.67-67.87 27.1-91.509 10.743-37.658-26.057-33.113-97.537 10.153-159.654C78.94 12.7 144.543-16.53 182.203 9.526c4.346 3.007 8.13 6.62 11.358 10.754zm-77.733 201.85c-6.637 4.322-13.324 7.983-19.96 10.94-26.17 11.66-51.17 12.24-69.203-.238C8.632 220.356.436 196.807 2.25 168.292c1.81-28.47 13.608-61.525 35.068-92.335 21.46-30.81 48.407-53.383 74.538-65.026 26.17-11.66 51.17-12.239 69.203.238 4.122 2.853 7.73 6.284 10.823 10.222-19.117 12.802-37.69 30.965-53.343 53.43-37.655 54.042-45.991 115.172-22.713 147.31zm1.675-1.105c-9.586-13.192-13.742-31.598-12.398-52.732 1.81-28.47 13.614-61.526 35.08-92.336 15.554-22.322 33.988-40.32 52.905-52.97 9.576 13.19 13.728 31.592 12.384 52.72-1.81 28.47-13.608 61.526-35.068 92.336-15.553 22.328-33.987 40.33-52.904 52.982zm102.865.02c-9.593-13.193-13.753-31.607-12.41-52.752 1.812-28.47 13.61-61.526 35.07-92.336 15.565-22.347 34.018-40.36 52.95-53.014 7.815 10.737 12.028 24.934 12.6 41.247h2.004c-.573-16.6-4.85-31.218-12.926-42.352 6.62-4.308 13.292-7.958 19.91-10.907 26.17-11.66 51.173-12.239 69.204.238 4.123 2.853 7.732 6.284 10.825 10.222-19.118 12.802-37.692 30.965-53.344 53.43-37.656 54.042-45.992 115.172-22.714 147.31-6.637 4.322-13.324 7.983-19.96 10.94-26.17 11.66-51.17 12.24-69.202-.238-4.112-2.845-7.713-6.266-10.8-10.19A175.808 175.808 0 0 0 233 214.298v-2.56c-4.17 3.363-8.39 6.47-12.633 9.305zM514.287 64.19c-.573-16.313-4.786-30.51-12.6-41.247-18.933 12.653-37.385 30.667-52.95 53.014-21.46 30.81-33.26 63.865-35.07 92.336-1.344 21.145 2.816 39.56 12.41 52.752a174.893 174.893 0 0 0 12.633-9.305v2.56a175.816 175.816 0 0 1-11.427 8.34c3.087 3.926 6.688 7.347 10.8 10.192 18.032 12.477 43.033 11.9 69.204.237 6.634-2.957 13.322-6.618 19.96-10.94-23.28-32.138-14.943-93.268 22.712-147.31 15.65-22.465 34.225-40.628 53.342-53.43-3.093-3.938-6.7-7.37-10.824-10.222-18.032-12.477-43.033-11.899-69.204-.237-6.618 2.95-13.29 6.6-19.91 10.908 8.075 11.134 12.352 25.752 12.927 42.352h-2.003zm-24.602-53.022c4.11 2.842 7.708 6.26 10.795 10.18-19.133 12.805-37.725 30.983-53.388 53.47-37.65 54.055-45.98 115.2-22.69 147.332-6.63 4.313-13.31 7.968-19.937 10.92-26.18 11.66-51.19 12.24-69.227-.238-4.12-2.85-7.728-6.278-10.82-10.21 19.117-12.804 37.69-30.97 53.342-53.44 37.638-54.038 45.973-115.16 22.713-147.3 6.645-4.328 13.34-7.993 19.984-10.952 26.18-11.66 51.19-12.24 69.228.238zm92.14 156.875c-15.553 22.328-33.987 40.33-52.904 52.982-9.585-13.192-13.74-31.598-12.397-52.732 1.81-28.47 13.613-61.526 35.08-92.336 15.553-22.322 33.988-40.32 52.905-52.97 9.577 13.19 13.73 31.592 12.385 52.72-1.81 28.47-13.61 61.526-35.068 92.336zm-258.613 52.982c18.916-12.65 37.35-30.654 52.903-52.982 21.46-30.81 33.26-63.865 35.07-92.336 1.342-21.128-2.81-39.53-12.387-52.72-18.917 12.65-37.35 30.648-52.904 52.97-21.467 30.81-33.27 63.865-35.08 92.336-1.345 21.134 2.812 39.54 12.398 52.732z" fill="white"/></svg>